<?xml version="1.0" encoding="utf-8"?>
<!-- Generator: Adobe Illustrator 19.0.0, SVG Export Plug-In . SVG Version: 6.00 Build 0)  -->
<svg version="1.1" id="图层_1" xmlns="http://www.w3.org/2000/svg" xmlns:xlink="http://www.w3.org/1999/xlink" x="0px" y="0px"
	 viewBox="-223.3 373.5 101.5 94.9" style="enable-background:new -223.3 373.5 101.5 94.9;" xml:space="preserve">
<style type="text/css">
	.st0{fill:#FFFFFF;}
</style>
<g>
	<rect id="XMLID_3_" x="-223.3" y="435.5" class="st0" width="32.8" height="32.8"/>
	<path id="XMLID_2_" class="st0" d="M-127,383.9c-10.5-13.6-34.1-13.6-56.9-1.7l0,0c-1.1,0.6-2.3,1.2-3.4,1.9
		c-13.2,8-23,18.8-28,30.1c20.4-15.3,43.9-18,53.8-6c10.3,12.6,1.6,36.7-19.3,53.8c-3,2.4-6,4.5-9.1,6.4l0,0
		c12.2-1.9,25.6-7.7,37.9-17.3C-125.5,430.5-114.3,400.4-127,383.9"/>
</g>
</svg>
